#!OML:ASF H:\Pregnant\Project 1\Capture day 1\Session 1\femalepreg.ASF
:FULLY-SPECIFIED
:DEGREES
2542
root 5.23129 8.56198 17.7721 -117.259 -4.09218 -181.616
lowerback 7.6918 1.19114 -7.74593
upperback 3.40197 0.813026 5.38564
thorax -0.948129 0.185213 10.0687
lowerneck -25.5674 2.52539 2.31827
upperneck 30.2319 1.7107 0.0217113
head 14.7982 0.775513 -0.104476
rclavicle 9.54166e-015 -9.93923e-016
rhumerus 30.1756 19.5733 -78.9763
rradius 33.9868
rwrist 24.0915
rhand -51.6382 344.248
rfingers 7.12502
rthumb -24.1607 -44.2506
lclavicle 9.54166e-015 -9.93923e-016
lhumerus 36.0547 -24.7774 63.4525
lradius 41.1772
lwrist 5.53326
lhand -49.2428 -24.9885
lfingers 7.12502
lthumb -21.8622 3.79649
rfemur -166.175 5.82422 38.9669
rtibia 96.3819
rfoot 8.99694 10.9228
rtoes 15.0829
lfemur 5.65431 -27.6249 -16.188
ltibia 5.08889e-014
lfoot -25.0127 14.2626
ltoes -40.9308
2543
root 5.22414 8.55377 17.7651 -117.146 -3.96188 -181.41
lowerback 7.6503 1.23588 -7.67655
upperback 3.29167 0.889228 5.3532
thorax -1.05774 0.238288 9.98401
lowerneck -25.6264 2.58056 2.45
upperneck 30.3045 1.74399 -0.0306593
head 14.847 0.796116 -0.141516
rclavicle 7.15625e-015 3.24019e-014
rhumerus 29.9423 19.3927 -79.3654
rradius 34.0895
rwrist 24.223
rhand -51.6236 344.405
rfingers 7.12502
rthumb -24.1466 -44.0956
lclavicle 7.15625e-015 3.24019e-014
lhumerus 35.0244 -24.2056 64.146
lradius 42.4908
lwrist 3.71561
lhand -48.4653 -24.8257
lfingers 7.12502
lthumb -21.1155 4.04453
rfemur -166.198 6.12409 39.024
rtibia 96.3448
rfoot 9.02241 10.9649
rtoes 15.1446
lfemur 5.62572 -27.376 -16.1269
ltibia -3.18055e-014
lfoot -24.9745 13.7633
ltoes -40.5773
2544
root 5.21672 8.54528 17.7584 -117.043 -3.82812 -181.203
lowerback 7.62412 1.28209 -7.61151
upperback 3.18465 0.965538 5.31846
thorax -1.17208 0.291081 9.89933
lowerneck -25.701 2.64654 2.6081
upperneck 30.3828 1.78997 -0.106661
head 14.903 0.821883 -0.190145
rclavicle 0 2.72335e-014
rhumerus 29.7089 19.1832 -79.79
rradius 34.1871
rwrist 24.384
rhand -51.5997 344.594
rfingers 7.12502
rthumb -24.1237 -43.9096
lclavicle 0 2.72335e-014
lhumerus 33.9388 -23.5394 64.8953
lradius 43.9176
lwrist 1.77311
lhand -47.8251 -24.7145
lfingers 7.12502
lthumb -20.5004 4.22315
rfemur -166.212 6.42268 39.0792
rtibia 96.2912
rfoot 9.06001 11.0013
rtoes 15.2401
lfemur 5.60326 -27.1264 -16.0597
ltibia -2.8625e-014
lfoot -24.9739 13.162
ltoes -40.1482
2545
root 5.20894 8.53624 17.7518 -116.947 -3.69879 -181
lowerback 7.60477 1.32547 -7.54844
upperback 3.08501 1.03654 5.28701
thorax -1.281 0.340007 9.81996
lowerneck -25.7905 2.72426 2.7894
upperneck 30.4554 1.85371 -0.208127
head 14.9609 0.854625 -0.249531
rclavicle 1.35174e-014 1.09332e-014
rhumerus 29.4806 18.9811 -80.2219
rradius 34.2841
rwrist 24.547
rhand -51.5803 344.799
rfingers 7.12502
rthumb -24.1052 -43.7065
lclavicle 1.35174e-014 1.09332e-014
lhumerus 32.8205 -22.7536 65.7023
lradius 45.4172
lwrist -0.198465
lhand -47.4771 -24.6875
lfingers 7.12502
lthumb -20.1659 4.28578
rfemur -166.223 6.7161 39.1401
rtibia 96.2419
rfoot 9.094 11.0351
rtoes 15.3552
lfemur 5.58494 -26.8809 -15.98
ltibia -1.90833e-014
lfoot -25.0039 12.4526
ltoes -39.6045
2546
root 5.20935 8.60657 17.7032 -116.861 -3.58124 -180.797
lowerback 7.59195 1.36265 -7.47999
upperback 2.99588 1.09805 5.25938
thorax -1.38006 0.382567 9.74252
lowerneck -25.8908 2.81252 2.98736
upperneck 30.5142 1.93359 -0.325593
head 15.016 0.894392 -0.314955
rclavicle 1.51076e-014 -2.98177e-015
rhumerus 29.2679 18.8202 -80.6365
rradius 34.3772
rwrist 24.6848
rhand -51.5748 345.012
rfingers 7.12502
rthumb -24.0999 -43.4947
lclavicle 1.51076e-014 -2.98177e-015
lhumerus 31.7047 -21.8502 66.5369
lradius 46.9611
lwrist -1.99018
lhand -47.5083 -24.6655
lfingers 7.12502
lthumb -20.1959 4.30462
rfemur -165.541 6.94737 39.4194
rtibia 96.0698
rfoot 8.5493 11.1973
rtoes 15.4681
lfemur 5.30042 -26.6371 -15.7607
ltibia 9.54166e-015
lfoot -24.7604 11.7183
ltoes -39.2465
2547
root 5.20146 8.59621 17.6963 -116.786 -3.46565 -180.59
lowerback 7.58164 1.39608 -7.42711
upperback 2.92269 1.15186 5.23904
thorax -1.46216 0.41893 9.68318
lowerneck -25.9971 2.90888 3.18652
upperneck 30.5485 2.0295 -0.446575
head 15.062 0.941334 -0.378556
rclavicle 1.27222e-014 -9.93923e-016
rhumerus 29.0557 18.6745 -81.0607
rradius 34.5055
rwrist 24.8505
rhand -51.5625 345.232
rfingers 7.12502
rthumb -24.0881 -43.2757
lclavicle 1.27222e-014 -9.93923e-016
lhumerus 30.6405 -20.8554 67.3573
lradius 48.4952
lwrist -3.34029
lhand -47.9693 -24.9583
lfingers 7.12502
lthumb -20.6389 3.96436
rfemur -165.545 7.23841 39.5025
rtibia 96.0375
rfoot 8.5733 11.2294
rtoes 15.5816
lfemur 5.30378 -26.3957 -15.6723
ltibia 3.18055e-015
lfoot -24.6462 11.0756
ltoes -39.1216
2548
root 5.19377 8.58501 17.6894 -116.721 -3.33953 -180.378
lowerback 7.569 1.42566 -7.41212
upperback 2.86721 1.19669 5.2295
thorax -1.52299 0.448195 9.65927
lowerneck -26.1233 3.01379 3.3714
upperneck 30.5685 2.14293 -0.558064
head 15.1064 0.996034 -0.431797
rclavicle 1.59028e-015 4.4329e-014
rhumerus 28.8475 18.5726 -81.4709
rradius 34.6756
rwrist 25.0252
rhand -51.5497 345.434
rfingers 7.12502
rthumb -24.0758 -43.0756
lclavicle 1.59028e-015 4.4329e-014
lhumerus 29.669 -19.7948 68.132
lradius 49.9785
lwrist -3.98572
lhand -48.7128 -25.9537
lfingers 7.12502
lthumb -21.3532 2.8898
rfemur -165.544 7.53974 39.582
rtibia 96.0111
rfoot 8.59986 11.2625
rtoes 15.6839
lfemur 5.32284 -26.146 -15.5949
ltibia 2.8625e-014
lfoot -24.4592 10.4437
ltoes -39.1509
2549
root 5.18639 8.57325 17.6821 -116.669 -3.20311 -180.155
lowerback 7.55826 1.45551 -7.43146
upperback 2.82904 1.2381 5.22666
thorax -1.56655 0.473548 9.66353
lowerneck -26.246 2.13843 4.0274
upperneck 30.545 2.76866 -0.992666
head 15.1433 1.74143 -0.469989
rclavicle 1.35174e-014 2.34566e-014
rhumerus 28.6857 18.5768 -81.7825
rradius 34.8471
rwrist 25.101
rhand -51.5575 345.595
rfingers 7.12502
rthumb -24.0832 -42.914
lclavicle 1.35174e-014 2.34566e-014
lhumerus 28.8327 -18.7207 68.8269
lradius 51.3701
lwrist -3.77321
lhand -49.4775 -28.1811
lfingers 7.12502
lthumb -22.0875 0.57741
rfemur -165.529 7.85397 39.6617
rtibia 96.0073
rfoot 8.61033 11.2946
rtoes 15.7805
lfemur 5.36307 -25.8824 -15.5261
ltibia -6.36111e-015
lfoot -24.2263 9.7845
ltoes -39.2432
2550
root 5.1794 8.56061 17.6748 -116.629 -3.04501 -179.922
lowerback 7.5533 1.48674 -7.49936
upperback 2.8018 1.27712 5.22609
thorax -1.6022 0.496589 9.69945
lowerneck -26.4028 2.26751 4.18925
upperneck 30.5443 2.88777 -1.05009
head 15.1854 1.79778 -0.495981
rclavicle 1.59028e-014 3.43897e-014
rhumerus 28.5382 18.6304 -82.0482
rradius 35.0661
rwrist 25.1349
rhand -51.5593 345.721
rfingers 7.12502
rthumb -24.085 -42.7877
lclavicle 1.59028e-014 3.43897e-014
lhumerus 28.1477 -17.6772 69.4255
lradius 52.6382
lwrist -2.71135
lhand -49.9822 -31.7061
lfingers 7.12502
lthumb -22.572 -3.00566
rfemur -165.502 8.18306 39.7282
rtibia 96.0076
rfoot 8.62935 11.3285
rtoes 15.8712
lfemur 5.42272 -25.6014 -15.4729
ltibia -1.27222e-014
lfoot -24 9.0366
ltoes -39.2461
2551
root 5.17226 8.54693 17.6674 -116.597 -2.88705 -179.677
lowerback 7.55194 1.51678 -7.58262
upperback 2.77946 1.3129 5.22808
thorax -1.6344 0.517498 9.74766
lowerneck -26.5479 2.40067 4.34511
upperneck 30.5223 3.00444 -1.08323
head 15.2149 1.85552 -0.511411
rclavicle 1.11319e-014 -4.57205e-015
rhumerus 28.411 18.7447 -82.242
rradius 35.3205
rwrist 25.0846
rhand -51.5602 345.797
rfingers 7.12502
rthumb -24.0858 -42.711
lclavicle 1.11319e-014 -4.57205e-015
lhumerus 27.6239 -16.6926 69.9316
lradius 53.7323
lwrist -1.02542
lhand -50.1448 -36.1109
lfingers 7.12502
lthumb -22.7281 -7.42949
rfemur -165.472 8.51775 39.8023
rtibia 96.0176
rfoot 8.65531 11.3679
rtoes 15.9651
lfemur 5.49686 -25.3092 -15.4107
ltibia 9.54166e-015
lfoot -23.8097 8.15348
ltoes -39.0198
2552
root 5.16482 8.53227 17.6602 -116.579 -2.73035 -179.417
lowerback 7.56663 1.54594 -7.67666
upperback 2.75816 1.34546 5.23355
thorax -1.6741 0.536998 9.8064
lowerneck -26.6192 2.54392 4.53467
upperneck 30.4096 3.13107 -1.16275
head 15.189 1.91264 -0.55144
rclavicle -2.34566e-014 -2.38542e-014
rhumerus 28.2871 18.9086 -82.3782
rradius 35.6086
rwrist 24.9666
rhand -51.548 345.835
rfingers 7.12502
rthumb -24.0742 -42.6752
lclavicle -2.34566e-014 -2.38542e-014
lhumerus 27.2578 -15.7568 70.3729
lradius 54.5902
lwrist 0.916124
lhand -50.0035 -40.819
lfingers 7.12502
lthumb -22.5925 -12.1211
rfemur -165.432 8.85431 39.8859
rtibia 96.0346
rfoot 8.68977 11.4136
rtoes 16.0617
lfemur 5.59149 -25.0063 -15.3427
ltibia -1.90833e-014
lfoot -23.6602 7.13944
ltoes -38.5312
2553
root 5.15683 8.51628 17.6538 -116.57 -2.56767 -179.151
lowerback 7.5968 1.5718 -7.7846
upperback 2.73048 1.37212 5.23771
thorax -1.72813 0.554794 9.87247
lowerneck -26.6066 2.69511 4.75308
upperneck 30.215 3.26729 -1.28063
head 15.1099 1.97025 -0.611863
rclavicle -7.95139e-015 -1.78906e-014
rhumerus 28.1518 19.1229 -82.4682
rradius 35.9171
rwrist 24.7793
rhand -51.5376 345.852
rfingers 7.12502
rthumb -24.0642 -42.6593
lclavicle -7.95139e-015 -1.78906e-014
lhumerus 27.0323 -14.8505 70.7767
lradius 55.1596
lwrist 2.72344
lhand -49.684 -45.3281
lfingers 7.12502
lthumb -22.2857 -16.5931
rfemur -165.389 9.19009 39.9685
rtibia 96.0546
rfoot 8.74001 11.4647
rtoes 16.1813
lfemur 5.70233 -24.6955 -15.2765
ltibia -6.99722e-014
lfoot -23.5507 5.96205
ltoes -37.6121
2554
root 5.14811 8.49911 17.6481 -116.573 -2.40102 -178.876
lowerback 7.64364 1.59874 -7.88702
upperback 2.69997 1.39977 5.23012
thorax -1.79437 0.574168 9.92199
lowerneck -26.516 2.85405 5.02456
upperneck 29.9379 3.40732 -1.45227
head 14.9801 2.02645 -0.704089
rclavicle -1.82882e-014 -4.21423e-014
rhumerus 28.0507 19.429 -82.4504
rradius 36.1837
rwrist 24.4355
rhand -51.5502 345.833
rfingers 7.12502
rthumb -24.0762 -42.6763
lclavicle -1.82882e-014 -4.21423e-014
lhumerus 26.9443 -13.9847 71.1462
lradius 55.4303
lwrist 4.14789
lhand -49.3688 -49.1625
lfingers 7.12502
lthumb -21.9832 -20.3917
rfemur -165.338 9.52393 40.055
rtibia 96.0754
rfoot 8.8034 11.5234
rtoes 16.321
lfemur 5.83076 -24.3766 -15.2195
ltibia -3.18055e-015
lfoot -23.4346 4.74954
ltoes -36.5466
